<?xml version="1.0" standalone="no"?><!DOCTYPE svg PUBLIC "-//W3C//DTD SVG 1.1//EN" "http://www.w3.org/Graphics/SVG/1.1/DTD/svg11.dtd"><svg t="1642074982922" class="icon" viewBox="0 0 1087 1024" version="1.1" xmlns="http://www.w3.org/2000/svg" p-id="3668" width="135.875" height="128" xmlns:xlink="http://www.w3.org/1999/xlink"><defs><style type="text/css"></style></defs><path d="M510.586219 456.946237c-4.743432 8.645643-7.148181 19.955888-7.14818 33.626838 0 0.691475 0.039639 1.400568 0.110107 2.092043 0.132129 1.299269 12.939837 131.653368-48.967019 261.51859-77.616998 162.827011-76.480688 208.222142-65.130804 231.155337 10.508662 21.233135 26.681256 19.295243 31.389453 18.194168 22.633703-5.289566 27.584138-38.211716 27.584138-50.44246 0-14.27434 18.96492-99.810271 61.140508-167.011097 43.215002-68.826013 62.38252-279.430882 62.38252-304.147819 0-27.773523-17.379372-42.761359-33.736946-42.76136-11.358692 0-21.426925 6.478727-27.623777 17.77576z" fill="#37CC6F" p-id="3669"></path><path d="M538.201187 419.355527c-18.533299 0-35.353325 10.491045-44.998744 28.059802-6.359811 11.596525-9.592568 26.117505-9.592568 43.157746 0 1.374142 0.088086 2.853987 0.22462 4.219321l-0.008809-0.088086c0.035234 0.31711 3.206331 32.173419-1.16714 79.158503a545.424241 545.424241 0 0 1-13.543226 80.43575c-7.976189 32.213058-18.885643 62.950675-32.428868 91.354013-31.847501 66.822056-52.604972 118.022056-63.452766 156.515648-11.807931 41.90252-12.283596 70.261815-1.554718 91.957402 13.331819 26.958727 34.93932 29.86997 43.60258 29.86997 13.785462 0 26.505084-6.23649 35.815777-17.564353 4.232533-5.148628 7.795613-11.429161 10.592344-18.669832 4.122426-10.676026 6.505153-23.193049 6.540387-34.37557 0.713497-12.772473 17.731716-92.44628 58.110348-156.766693 11.279415-17.973953 21.255157-43.800774 30.486572-78.960309 7.038073-26.769342 13.552034-58.700525 19.374521-94.899476 10.002168-62.29003 15.542778-122.805127 15.542778-140.831931 0-14.525385-3.761273-27.901247-10.874219-38.68738-9.86123-14.952602-25.818013-23.884525-42.668869-23.884525z m-14.948198 71.217548c0-22.136017 7.562185-31.578839 14.952602-31.578838 7.038073 0 13.917591 8.588387 13.917592 22.942004 0 29.39871-20.352275 231.494469-59.347957 293.608327-44.796146 71.358486-64.175071 160.43988-64.175071 177.546185 0 12.693196-5.923785 31.270538-13.309798 31.270537-2.576516 0-5.329204-2.263811-8.073084-7.808825-2.285832-4.611303-3.580697-10.786133-3.576292-19.00456 0.035234-30.041738 17.590778-87.33729 68.830417-194.824258 45.249789-94.925901 52.168946-189.045815 52.151329-237.841066-0.008809-21.594288-1.369738-34.309505-1.369738-34.309506z m-55.018529 462.601359v-0.09249a0.321514 0.321514 0 0 1 0 0.09249z" fill="#00A33E" p-id="3670"></path><path d="M388.613505 27.333092a19.819355 19.819355 0 0 0-0.590176 23.831674c28.275613 39.559432 11.301437 134.811252 2.378323 168.178236a30.900576 30.900576 0 0 0-0.171768 0.682667c-31.85631 137.788559 3.452972 227.187062 38.678572 277.911398 38.704998 55.727622 85.425824 78.070641 87.394546 78.995544a19.819355 19.819355 0 0 0 24.360189-6.17483c75.798022-102.695088 100.153806-205.121514 72.397901-304.438504-43.369153-155.194357-199.880396-244.394667-201.382262-245.011268a19.810546 19.810546 0 0 0-23.065325 6.025083z" fill="#00E355" p-id="3671"></path><path d="M404.160688 0a39.634305 39.634305 0 0 0-32.261505 62.690822c4.879966 6.826667 15.683716 28.834959 10.561514 85.597591-3.206331 35.57354-11.138477 65.668129-11.217755 65.967621-0.110108 0.418409-0.224619 0.88086-0.325918 1.303674-14.582641 63.065187-16.947751 122.016757-7.033669 175.211905 8.16117 43.787561 24.558383 83.646486 48.7424 118.471295 17.379372 25.020834 38.242546 46.795699 61.999346 64.707991 17.766951 13.39348 30.825703 19.775312 33.261282 20.92043a39.651923 39.651923 0 0 0 16.806813 3.756869 39.660731 39.660731 0 0 0 31.913565-16.097721c38.810701-52.582951 64.998675-106.02474 77.837213-158.854331 11.59212-47.672155 12.517024-95.450013 2.757093-142.007879-8.517918-40.647295-25.241049-80.607518-49.702538-118.775192-19.145497-29.878778-43.060852-58.731355-71.089824-85.756146C468.996404 31.411475 425.715338 6.320172 423.896361 5.271948A39.559432 39.559432 0 0 0 404.160688 0z m19.264413 120.77034C423.447123 90.55243 418.822606 60.175966 404.143071 39.63871c0 0 200.043355 114.991897 200.127037 306.385204 0.026426 63.131252-21.7088 134.582228-79.554891 212.96117 0 0-127.112533-59.603406-127.227045-235.260146-0.017617-29.676181 3.580697-62.6688 12.041359-99.242116 0.008809 0.004404 13.855931-51.622813 13.89557-103.712482z" fill="#00A33D" p-id="3672"></path><path d="M729.792688 373.700542c-167.552826 86.614985-215.436387 307.803389-217.391897 317.18455a19.819355 19.819355 0 0 0 14.247914 23.188646c56.190073 15.133178 141.646727 2.056809 223.007381-34.098099 87.553101-38.920809 151.943983-95.49846 176.66092-155.225187 43.237024-104.496447 118.34357-103.619991 121.52788-103.531906a19.925058 19.925058 0 0 0 19.982314-15.498735 19.770908 19.770908 0 0 0-11.341075-22.479553c-124.280568-54.146477-234.19871-57.357213-326.693437-9.539716z" fill="#00E355" p-id="3673"></path><path d="M871.139923 320.298391c-69.821385 0-133.586856 20.057187-189.561119 59.612215-43.76554 30.918194-82.435303 73.60468-114.969875 126.861489-54.106839 88.583708-72.838331 176.365832-73.609084 180.056636a39.629901 39.629901 0 0 0 28.495828 46.372886c17.163561 4.62892 36.582125 6.967604 57.713961 6.967605 31.57003 0 67.606022-5.333609 104.210168-15.432671 35.784946-9.865634 72.248155-24.298529 105.438968-41.739562 35.683647-18.744705 66.844077-40.316972 92.604834-64.131028 29.385497-27.148112 50.636249-56.269351 63.170891-86.54892 8.931923-21.58548 19.969101-39.79286 32.79883-54.115647 9.8304-10.971114 20.783897-19.744482 32.565402-26.077867 20.41834-10.971114 36.793531-11.103243 37.485006-11.103243h0.189385a153.930323 153.930323 0 0 0 0.400792 0c18.577342 0 34.961342-12.913411 38.964851-31.125196 4.06517-18.498065-5.258735-37.278004-22.629299-44.840189-68.209411-29.693798-133.230108-44.756508-193.269539-44.756508z m-339.338185 374.638658s69.91828-334.995544 339.338185-334.999948c51.543535 0 110.380594 12.261574 177.436077 41.466495 0 0-0.37877-0.013213-1.096671-0.013213-10.447002 0-93.054073 3.607123-139.466598 115.775862-43.109299 104.148508-214.176757 183.368671-328.807501 183.368671-17.304499 0-33.309729-1.810168-47.403492-5.597867z" fill="#00A33D" p-id="3674"></path><path d="M891.474581 401.403596s-200.756852 31.772628-359.672843 293.529049l22.849514-73.569445c0.004404 0 159.056929-199.796714 336.823329-219.959604z" fill="#00BA46" opacity=".63" p-id="3675"></path><path d="M32.314357 384.649634c-8.901092 3.272396-14.137806 12.389299-12.631535 21.752843s9.535312 16.348766 19.008963 16.665876c2.787923 0.09249 68.715905 3.360482 101.391415 97.652163 41.263897 119.079088 240.739097 214.445419 350.018615 191.802908a19.819355 19.819355 0 0 0 15.586822-22.307785c-1.264034-8.531131-32.596232-209.917798-178.797007-296.735381-80.796903-47.989265-179.911295-50.957763-294.577273-8.830624z" fill="#00E355" p-id="3676"></path><path d="M182.448172 335.33908c-48.689548 0-101.501523 10.33249-156.973695 30.711191-17.758142 6.527174-27.918865 24.703725-24.967982 43.395578 2.946477 18.687449 19.198348 32.701935 38.106013 33.446263l-0.929308-0.03083 0.110108 0.008808c0.572559 0.035234 14.128998 0.920499 30.927002 11.239777 23.016877 14.133402 40.717763 38.727019 52.631398 73.102589 19.057411 54.996508 68.914099 108.081548 140.387096 149.459957 63.787492 36.921256 136.216224 58.969187 193.749609 58.969187 13.767845 0 26.764938-1.237609 38.634529-3.708422a39.63871 39.63871 0 0 0 31.16043-44.619974c-0.524112-3.536654-13.358245-87.579527-60.105497-172.401961-64.74763-117.475923-162.51871-179.572163-282.729703-179.572163zM39.145428 403.257806c53.838176-19.779716 101.364989-28.280017 143.302744-28.280017 256.546133 0 303.63692 318.140284 303.63692 318.140284-9.411991 1.942297-19.674013 2.880413-30.58787 2.880413-102.545342 0-262.271725-82.45292-296.68253-181.76991C120.730701 404.350073 39.145428 403.257806 39.145428 403.257806z" fill="#00A33D" p-id="3677"></path><path d="M179.708697 411.520275s186.914133 13.054348 306.376395 281.597798l-16.56898-67.037867c0.004404 0-102.893282-201.505583-289.807415-214.559931z" fill="#00BA46" opacity=".63" p-id="3678"></path></svg>